HIERARCHY
ROOT Hips
{
	OFFSET 0.000000 0.000000 0.000000
	CHANNELS 6 Xposition Yposition Zposition Zrotation Yrotation Xrotation 
	JOINT LeftUpLeg_virtual
	{
		OFFSET 0.000000 0.000000 0.000000
		CHANNELS 3 Zrotation Yrotation Xrotation
		JOINT LeftUpLeg
		{
			OFFSET 8.479694 -4.795517 -0.379053
			CHANNELS 3 Zrotation Yrotation Xrotation
			JOINT LeftLeg
			{
				OFFSET 0.485052 -32.551468 0.112863
				CHANNELS 3 Zrotation Yrotation Xrotation
				JOINT LeftFoot
				{
					OFFSET 0.438033 -32.635670 -3.012641
					CHANNELS 3 Zrotation Yrotation Xrotation
					JOINT LeftToeBase
					{
						OFFSET 0.970169 -13.225353 11.864223
						CHANNELS 3 Zrotation Yrotation Xrotation
						End Site
						{
							OFFSET 0.000000 0.000000 0.000000
						}
					}
				}
			}
		}
	}
	JOINT RightUpLeg_virtual
	{
		OFFSET 0.000000 0.000000 0.000000
		CHANNELS 3 Zrotation Yrotation Xrotation
		JOINT RightUpLeg
		{
			OFFSET -8.479694 -4.795517 -0.379053
			CHANNELS 3 Zrotation Yrotation Xrotation
			JOINT RightLeg
			{
				OFFSET -0.484100 -32.551483 0.112903
				CHANNELS 3 Zrotation Yrotation Xrotation
				JOINT RightFoot
				{
					OFFSET -0.438985 -32.635651 -3.012681
					CHANNELS 3 Zrotation Yrotation Xrotation
					JOINT RightToeBase
					{
						OFFSET -0.970169 -13.225354 11.864223
						CHANNELS 3 Zrotation Yrotation Xrotation
						End Site
						{
							OFFSET 0.000000 0.000000 0.000000
						}
					}
				}
			}
		}
	}
	JOINT Spine_virtual
	{
		OFFSET 0.000000 0.000000 0.000000
		CHANNELS 3 Zrotation Yrotation Xrotation
		JOINT Spine
		{
			OFFSET 0.000000 7.722015 1.166203
			CHANNELS 3 Zrotation Yrotation Xrotation
			JOINT Spine1
			{
				OFFSET 0.000000 12.024086 0.248766
				CHANNELS 3 Zrotation Yrotation Xrotation
				JOINT Spine2
				{
					OFFSET -0.000000 11.503036 -0.491240
					CHANNELS 3 Zrotation Yrotation Xrotation
					JOINT Neck_virtual
					{
						OFFSET 0.000000 0.000000 0.000000
						CHANNELS 3 Zrotation Yrotation Xrotation
						JOINT Neck
						{
							OFFSET 0.000000 18.430687 -3.123054
							CHANNELS 3 Zrotation Yrotation Xrotation
							JOINT Head
							{
								OFFSET -0.000000 9.051071 1.034021
								CHANNELS 3 Zrotation Yrotation Xrotation
								End Site
								{
									OFFSET 0.000000 0.000000 0.000000
								}
							}
						}
					}
					JOINT LeftShoulder_virtual
					{
						OFFSET 0.000000 0.000000 0.000000
						CHANNELS 3 Zrotation Yrotation Xrotation
						JOINT LeftShoulder
						{
							OFFSET 6.197824 13.665230 -4.064723
							CHANNELS 3 Zrotation Yrotation Xrotation
							JOINT LeftArm
							{
								OFFSET 7.778132 -0.187073 -1.709282
								CHANNELS 3 Zrotation Yrotation Xrotation
								JOINT LeftForeArm
								{
									OFFSET 21.954697 0.000000 -2.041093
									CHANNELS 3 Zrotation Yrotation Xrotation
									JOINT LeftHand
									{
										OFFSET 22.992908 0.000000 -0.870901
										CHANNELS 3 Zrotation Yrotation Xrotation
										End Site
										{
											OFFSET 0.000000 0.000000 0.000000
										}
									}
								}
							}
						}
					}
					JOINT RightShoulder_virtual
					{
						OFFSET 0.000000 0.000000 0.000000
						CHANNELS 3 Zrotation Yrotation Xrotation
						JOINT RightShoulder
						{
							OFFSET -6.197824 13.665230 -4.064723
							CHANNELS 3 Zrotation Yrotation Xrotation
							JOINT RightArm
							{
								OFFSET -7.778132 -0.187073 -1.709282
								CHANNELS 3 Zrotation Yrotation Xrotation
								JOINT RightForeArm
								{
									OFFSET -21.954697 0.000000 -2.041093
									CHANNELS 3 Zrotation Yrotation Xrotation
									JOINT RightHand
									{
										OFFSET -22.992908 0.000000 -0.870901
										CHANNELS 3 Zrotation Yrotation Xrotation
										End Site
										{
											OFFSET 0.000000 0.000000 0.000000
										}
									}
								}
							}
						}
					}
				}
			}
		}
	}
}
MOTION
Frames: 4
Frame Time: 0.033333
-2.098042 82.117882 13.445183 179.856052 -24.521890 179.763476 -4.489732 1.786681 13.682496 -1.847551 0.061175 -23.427670 4.528102 3.693187 26.292482 3.107611 -8.634912 -10.312611 0.000000 0.000000 0.000000 -0.587120 -1.162548 13.540134 -2.389858 -13.762539 -26.286516 0.631189 2.170889 25.282283 10.627418 3.436610 -1.576393 0.000000 0.000000 0.000000 0.210214 3.177842 2.775242 4.871962 -0.687967 -1.823188 -1.439231 -1.742741 6.544686 -0.008597 0.084700 -0.063810 -1.610355 -0.575112 5.708407 -0.825941 -9.088144 -4.917375 0.000000 0.000000 0.000000 0.392699 -0.195945 2.869163 1.984063 2.389742 4.843253 -68.343132 6.246681 36.267321 126.875121 -87.733070 -103.960110 0.000000 0.000000 0.000000 -4.763105 1.788444 1.641981 21.539773 -3.811237 7.724155 58.119562 5.205935 11.136623 -164.323628 73.437306 -171.928825 0.000000 0.000000 0.000000 
-2.915652 82.084244 13.884046 179.846585 -26.006859 179.781275 -4.515857 1.148553 13.569767 -2.573616 0.530153 -23.373954 4.451815 3.703600 26.372578 3.326806 -8.958296 -10.251163 0.000000 0.000000 0.000000 -0.714555 -1.647149 13.361609 -3.123344 -13.364195 -26.227629 0.363370 2.004544 26.030915 9.358157 2.088556 -1.662272 0.000000 0.000000 0.000000 0.210261 2.627110 2.546686 4.852241 -0.398593 -1.923476 -1.461724 -1.650152 6.479115 0.016251 0.105725 -0.059134 -1.679680 -0.361354 5.627633 -0.361133 -9.266280 -4.708207 0.000000 0.000000 0.000000 0.336147 -0.165987 2.841421 2.132866 2.624107 4.631839 -68.438147 6.735640 36.394123 132.079097 -87.800197 -109.194357 0.000000 0.000000 0.000000 -4.841255 1.798334 1.545700 21.185437 -3.089496 7.359808 56.954577 10.272170 11.091586 -166.049508 71.419088 -173.802537 0.000000 0.000000 0.000000 
-3.718474 82.045113 14.169312 179.823130 -27.933315 179.959980 -4.461919 0.268746 13.371528 -3.209234 0.793464 -23.359336 4.267367 3.834049 26.510486 3.451994 -9.478867 -10.140535 0.000000 0.000000 0.000000 -0.913958 -1.787641 13.394869 -3.965276 -11.922689 -26.183098 0.262694 3.273066 27.016982 9.231284 1.900972 -2.407204 0.000000 0.000000 0.000000 0.164093 2.139643 2.141467 4.801973 -0.246144 -2.050898 -1.489876 -1.713470 6.418070 -0.008240 -0.014162 -0.053214 -1.702127 -0.323590 5.619726 0.154103 -9.406854 -4.647437 0.000000 0.000000 0.000000 0.321902 -0.109625 2.856457 2.293423 2.759988 4.461650 -68.590044 7.126168 36.484692 133.706089 -87.722729 -110.855890 0.000000 0.000000 0.000000 -4.886629 1.872609 1.446196 20.726132 -2.387606 6.813315 55.704082 15.916082 10.831210 -167.648714 69.839490 -175.504415 0.000000 0.000000 0.000000 
-4.531363 81.994911 14.304368 179.778789 -29.532276 -179.976400 -4.318119 0.034999 13.227733 -3.877874 0.728717 -23.175880 4.010400 3.707066 26.857960 3.802777 -9.734528 -9.906243 0.000000 0.000000 0.000000 -1.057618 -1.740901 13.407259 -4.644744 -10.086658 -26.297804 0.194539 4.405776 28.595842 9.200553 1.923511 -4.369527 0.000000 0.000000 0.000000 0.048120 1.884384 1.773048 4.702268 -0.057581 -2.116383 -1.493636 -1.643413 6.354464 -0.028841 0.009939 -0.048076 -1.649218 -0.251220 5.582814 0.795838 -9.603585 -4.588635 0.000000 0.000000 0.000000 0.367117 -0.160864 2.837077 2.489373 2.754152 4.292411 -68.794744 7.466274 36.575154 134.714608 -87.623889 -111.850010 0.000000 0.000000 0.000000 -4.885605 1.782063 1.380618 20.244686 -1.839136 6.401455 54.329466 21.758589 10.366899 -168.658312 68.380616 -176.523370 0.000000 0.000000 0.000000 
